<svg width="80" height="80" viewBox="0 0 80 80" fill="none" xmlns="http://www.w3.org/2000/svg">
<path d="M80 0H0V80H80V0Z" fill="#2877FF"/>
<path d="M20.297 66.1386H22.1287C21.2871 68.8119 19.1584 70.5941 15.9406 70.5941C12.0297 70.5941 9.45544 67.7723 9.45544 63.6139C9.45544 59.5049 12.0297 56.4851 15.9901 56.4851C19.2079 56.4851 21.3861 58.2178 22.1782 60.9406H20.297C19.5049 58.9604 17.9703 58.0198 15.9406 58.0198C13.0198 58.0198 11.1386 60.297 11.1386 63.5643C11.1386 66.8317 12.9703 69.0594 15.9406 69.0594C18.0198 69.0594 19.5049 68.1188 20.297 66.1386Z" fill="white"/>
<path d="M32.1782 67.0297H25.8911L24.6039 70.4455H22.8713L28.1683 56.6832H29.9505L35.2475 70.4455H33.4653L32.1782 67.0297ZM31.6337 65.5941L29.0594 58.7624L26.4356 65.5941H31.6337Z" fill="white"/>
<path d="M45.5446 68.8614V70.4455H36.9802V56.6832H38.6634V68.8614H45.5446Z" fill="white"/>
<path d="M56.2376 68.8614V70.4455H47.6238V56.6832H49.3069V68.8614H56.2376Z" fill="white"/>
<path d="M11.0891 51.5841H9.40594V37.8713H11.0891V51.5841Z" fill="white"/>
<path d="M14.0594 37.8713H15.8416L23.2673 48.9604V37.8713H24.901V51.5841H23.1683L15.7426 40.5445V51.5841H14.1089V37.8713H14.0594Z" fill="white"/>
<path d="M37.6733 37.8713H39.4555L33.9109 51.5841H32.0792L26.5842 37.8713H28.4159L33.0693 49.6039L37.6733 37.8713Z" fill="white"/>
<path d="M39.901 44.7525C39.901 40.6436 42.5248 37.6733 46.4357 37.6733C50.3465 37.6733 52.9703 40.6436 52.9703 44.7525C52.9703 48.8614 50.3465 51.7327 46.4357 51.7327C42.5743 51.7327 39.901 48.8614 39.901 44.7525ZM51.2376 44.7525C51.2376 41.4852 49.406 39.2079 46.4852 39.2079C43.5149 39.2079 41.6832 41.4852 41.6832 44.7525C41.6832 48.0198 43.5149 50.198 46.4852 50.198C49.406 50.1485 51.2376 48.0198 51.2376 44.7525Z" fill="white"/>
</svg>
